<?xml version="1.0" encoding="utf-8"?>
<!-- Generator: Adobe Illustrator 22.0.1, SVG Export Plug-In . SVG Version: 6.00 Build 0)  -->
<svg version="1.1" id="Layer_1" xmlns="http://www.w3.org/2000/svg" xmlns:xlink="http://www.w3.org/1999/xlink" x="0px" y="0px"
	 viewBox="0 0 566.9 566.9" style="enable-background:new 0 0 566.9 566.9;" xml:space="preserve">
<style type="text/css">
	.st0{fill:#FFFFFF;}
	.st1{clip-path:url(#SVGID_2_);}
</style>
<rect class="st0" width="566.9" height="566.9"/>
<g>
	<defs>
		<rect id="SVGID_1_" width="566.9" height="566.9"/>
	</defs>
	<clipPath id="SVGID_2_">
		<use xlink:href="#SVGID_1_"  style="overflow:visible;"/>
	</clipPath>
	<path class="st1" d="M473.4,279c2-2,4.8,0.6,6.5,2.5s4.2,4.8,2.5,6.5s-4.6-0.8-6.5-2.5C474,283.7,471.4,281,473.4,279z"/>
	<path class="st1" d="M464.4,279c2-2,4.7,0.7,6.5,2.5c1.8,1.8,2.7,2.7,4.5,4.5c1.8,1.8,4.5,4.5,2.5,6.5c-2,2-4.7-0.7-6.5-2.5
		c-1.8-1.8-2.7-2.7-4.5-4.5C465.1,283.7,462.4,281,464.4,279z"/>
	<path class="st1" d="M455.3,279c2-2,4.7,0.7,6.5,2.5c1.8,1.8,2.7,2.7,4.5,4.5c1.8,1.8,2.7,2.7,4.5,4.5c1.8,1.8,4.5,4.5,2.5,6.5
		s-4.7-0.7-6.5-2.5c-1.8-1.8-2.7-2.7-4.5-4.5c-1.8-1.8-2.7-2.7-4.5-4.5C456,283.7,453.3,281,455.3,279z"/>
	<path class="st1" d="M446.3,279c2-2,4.7,0.7,6.5,2.5c1.8,1.8,3,2.4,4.5,4.5c1.5,2.1,1.1,4.3,2.9,6.1c1.8,1.8,4,1.4,6.1,2.9
		c2.1,1.5,4.5,4.5,2.5,6.5c-2,2-5-0.4-6.5-2.5c-1.5-2.1-1.1-4.3-2.9-6.1c-1.8-1.8-4-1.4-6.1-2.9c-2.1-1.5-2.7-2.7-4.5-4.5
		C447,283.7,444.3,281,446.3,279z"/>
	<path class="st1" d="M437.3,279c2-2,4.7,0.7,6.5,2.5c1.8,1.8,4.5,4.5,2.5,6.5c-2,2-4.7-0.7-6.5-2.5C438,283.7,435.3,281,437.3,279z
		"/>
	<path class="st1" d="M455.3,297c1.8-1.8,4.7,0.7,6.5,2.5c1.8,1.8,4.5,4.5,2.5,6.5c-2,2-4.7-0.7-6.5-2.5
		C456.1,301.7,453.5,298.8,455.3,297z"/>
	<path class="st1" d="M410.2,260.9c1.2,0.6,4.8,4.2,4.5,4.5C413.5,264.8,410,261.2,410.2,260.9z"/>
	<path class="st1" d="M450.8,301.5c1.8-1.8,4.7,0.8,6.5,2.5c1.9,1.8,4.5,4.5,2.5,6.5s-4.8-0.7-6.5-2.5
		C451.6,306.2,449.1,303.3,450.8,301.5z"/>
	<path class="st1" d="M473.4,324.1c2-2,4.8,0.6,6.5,2.5s4.2,4.8,2.5,6.5c-1.7,1.7-4.6-0.8-6.5-2.5
		C474,328.8,471.4,326.1,473.4,324.1z"/>
	<path class="st1" d="M401.2,260.9c0.3-0.3,4.4,1,6.5,2.5c2.1,1.5,3,2.4,4.5,4.5c1.5,2.1,1.2,4.3,2.8,6.2c1.7,1.9,3.4,2,5.6,3.5
		c2.1,1.5,5.1,3.9,3.1,5.9s-4.4-1-5.9-3.1c-1.5-2.1-1.5-3.9-3.5-5.6c-1.9-1.7-4-1.4-6.2-2.8c-2.1-1.5-3-2.4-4.5-4.5
		C402.3,265.3,400.9,261.2,401.2,260.9z"/>
	<path class="st1" d="M446.3,306c1.7-1.7,4.6,0.8,6.5,2.5c1.9,1.7,4.5,4.5,2.5,6.5c-2,2-4.8-0.6-6.5-2.5
		C447.1,310.7,444.6,307.7,446.3,306z"/>
	<path class="st1" d="M464.4,324.1c2-2,4.7,0.7,6.5,2.5c1.8,1.8,4.5,4.5,2.5,6.5s-4.7-0.7-6.5-2.5
		C465.1,328.8,462.4,326.1,464.4,324.1z"/>
	<path class="st1" d="M401.2,269.9c2-2,4.7,0.7,6.5,2.5c1.8,1.8,2.7,2.7,4.5,4.5c1.8,1.8,2.7,2.7,4.5,4.5c1.8,1.8,4.5,4.5,2.5,6.5
		c-2,2-4.7-0.7-6.5-2.5c-1.8-1.8-2.7-2.7-4.5-4.5c-1.8-1.8-2.7-2.7-4.5-4.5C401.9,274.6,399.2,271.9,401.2,269.9z"/>
	<path class="st1" d="M441.8,310.5c1.6-1.6,4.6,0.8,6.5,2.5c1.9,1.7,2.7,2.7,4.5,4.5c1.8,1.8,2.7,2.7,4.5,4.5
		c1.8,1.8,2.7,2.7,4.5,4.5c1.8,1.8,4.5,4.5,2.5,6.5c-2,2-4.7-0.7-6.5-2.5c-1.8-1.8-2.7-2.7-4.5-4.5c-1.8-1.8-2.7-2.7-4.5-4.5
		c-1.8-1.8-2.8-2.6-4.5-4.5C442.6,315.1,440.2,312.1,441.8,310.5z"/>
	<path class="st1" d="M401.2,279c2-2,4.7,0.7,6.5,2.5c1.8,1.8,3,2.4,4.5,4.5s2.8,6.2,2.5,6.5c-0.3,0.3-4.4-1-6.5-2.5
		c-2.1-1.5-2.7-2.7-4.5-4.5C401.9,283.7,399.2,281,401.2,279z"/>
	<path class="st1" d="M437.3,315c1.5-1.5,4.6,0.8,6.5,2.5c1.9,1.7,2.7,2.7,4.5,4.5c1.8,1.8,2.7,2.7,4.5,4.5c1.8,1.8,4.5,4.5,2.5,6.5
		c-2,2-4.7-0.7-6.5-2.5c-1.8-1.8-2.7-2.7-4.5-4.5c-1.8-1.8-2.8-2.6-4.5-4.5C438.1,319.6,435.8,316.5,437.3,315z"/>
	<path class="st1" d="M392.2,279c1.5-1.5,4.6,0.8,6.5,2.5c1.9,1.7,2.7,2.7,4.5,4.5c1.8,1.8,2.7,2.7,4.5,4.5c1.8,1.8,3,2.4,4.5,4.5
		s2.8,6.2,2.5,6.5c-0.3,0.3-4.4-1-6.5-2.5c-2.1-1.5-2.7-2.7-4.5-4.5c-1.8-1.8-2.7-2.7-4.5-4.5c-1.8-1.8-2.8-2.6-4.5-4.5
		C393,283.6,390.7,280.5,392.2,279z"/>
	<path class="st1" d="M432.8,319.5c0,0,4.3,1.1,6.5,2.5c2.2,1.4,2.7,2.7,4.5,4.5c1.8,1.8,4.5,4.5,2.5,6.5s-4.7-0.7-6.5-2.5
		c-1.8-1.8-3.1-2.3-4.5-4.5C433.9,323.9,432.8,319.6,432.8,319.5z"/>
	<path class="st1" d="M401.2,297c2-2,4.7,0.7,6.5,2.5c1.8,1.8,3,2.4,4.5,4.5s2.8,6.2,2.5,6.5c-0.3,0.3-4.4-1-6.5-2.5
		c-2.1-1.5-2.7-2.7-4.5-4.5C401.9,301.7,399.2,299,401.2,297z"/>
	<path class="st1" d="M432.8,328.6c2.9-1.1,6.5,2.5,4.5,4.5C434.4,334.2,430.8,330.6,432.8,328.6z"/>
	<path class="st1" d="M374.2,279c2.9-1.1,6.5,2.5,4.5,4.5C375.8,284.6,372.2,281,374.2,279z"/>
	<path class="st1" d="M401.2,306c2-2,4.7,0.7,6.5,2.5c1.8,1.8,2.9,2.5,4.5,4.5c1.6,2,1.9,3.5,3.7,5.3c1.8,1.8,3.4,2.1,5.3,3.7
		c2,1.6,4.5,4.5,2.5,6.5s-4.9-0.5-6.5-2.5c-1.6-2-1.9-3.5-3.7-5.3c-1.8-1.8-3.4-2.1-5.3-3.7c-2-1.6-2.7-2.7-4.5-4.5
		C401.9,310.7,399.2,308,401.2,306z"/>
	<path class="st1" d="M365.1,279c2-2,4.7,0.7,6.5,2.5c1.8,1.8,2.7,2.7,4.5,4.5c1.8,1.8,4.5,4.5,2.5,6.5s-4.7-0.7-6.5-2.5
		c-1.8-1.8-2.7-2.7-4.5-4.5C365.8,283.7,363.1,281,365.1,279z"/>
	<path class="st1" d="M401.2,315c2-2,4.7,0.7,6.5,2.5c1.8,1.8,2.7,2.7,4.5,4.5c1.8,1.8,2.7,2.7,4.5,4.5c1.8,1.8,4.5,4.5,2.5,6.5
		c-2,2-4.7-0.7-6.5-2.5c-1.8-1.8-2.7-2.7-4.5-4.5c-1.8-1.8-2.7-2.7-4.5-4.5C401.9,319.7,399.2,317,401.2,315z"/>
	<path class="st1" d="M365.1,288c2-2,4.7,0.7,6.5,2.5c1.8,1.8,2.7,2.7,4.5,4.5c1.8,1.8,4.5,4.5,2.5,6.5c-2,2-4.7-0.7-6.5-2.5
		c-1.8-1.8-2.7-2.7-4.5-4.5C365.8,292.7,363.1,290,365.1,288z"/>
	<path class="st1" d="M401.2,324.1c2-2,4.7,0.7,6.5,2.5c1.8,1.8,4.5,4.5,2.5,6.5c-2,2-4.7-0.7-6.5-2.5
		C401.9,328.8,399.2,326.1,401.2,324.1z"/>
	<path class="st1" d="M365.1,297c2-2,4.7,0.7,6.5,2.5c1.8,1.8,2.7,2.7,4.5,4.5c1.8,1.8,4.5,4.5,2.5,6.5s-4.7-0.7-6.5-2.5
		c-1.8-1.8-2.7-2.7-4.5-4.5C365.8,301.7,363.1,299,365.1,297z"/>
	<path class="st1" d="M338.1,279c2-2,4.9,0.6,6.5,2.5c1.7,1.9,3.8,5.2,2.5,6.5c-1.3,1.3-4.6-0.8-6.5-2.5
		C338.6,283.8,336.1,281,338.1,279z"/>
	<path class="st1" d="M365.1,306c2-2,4.7,0.7,6.5,2.5c1.8,1.8,2.7,2.7,4.5,4.5c1.8,1.8,4.5,4.5,2.5,6.5c-2,2-4.7-0.7-6.5-2.5
		c-1.8-1.8-2.7-2.7-4.5-4.5C365.8,310.7,363.1,308,365.1,306z"/>
	<path class="st1" d="M333.6,283.5c2-2,4.7,0.7,6.5,2.5c1.8,1.8,2.8,2.6,4.5,4.5c1.7,1.9,3.8,5.2,2.5,6.5c-1.3,1.3-4.6-0.8-6.5-2.5
		s-2.7-2.7-4.5-4.5C334.3,288.2,331.6,285.5,333.6,283.5z"/>
	<path class="st1" d="M365.1,315c2-2,4.7,0.7,6.5,2.5c1.8,1.8,2.7,2.7,4.5,4.5c1.8,1.8,4.5,4.5,2.5,6.5s-4.7-0.7-6.5-2.5
		c-1.8-1.8-2.7-2.7-4.5-4.5C365.8,319.7,363.1,317,365.1,315z"/>
	<path class="st1" d="M333.6,292.5c2-2,4.7,0.7,6.5,2.5c1.8,1.8,2.8,2.6,4.5,4.5c1.7,1.9,3.8,5.2,2.5,6.5c-1.3,1.3-4.6-0.8-6.5-2.5
		c-1.9-1.7-2.7-2.7-4.5-4.5C334.3,297.2,331.6,294.5,333.6,292.5z"/>
	<path class="st1" d="M365.1,324.1c2-2,4.7,0.7,6.5,2.5c1.8,1.8,4.5,4.5,2.5,6.5c-2,2-4.7-0.7-6.5-2.5
		C365.8,328.8,363.1,326.1,365.1,324.1z"/>
	
		<ellipse transform="matrix(0.7071 -0.7071 0.7071 0.7071 -108.0216 306.1422)" class="st1" cx="315.5" cy="283.5" rx="2.8" ry="6.4"/>
	<path class="st1" d="M333.6,301.5c2-2,4.7,0.7,6.5,2.5c1.8,1.8,2.8,2.6,4.5,4.5c1.7,1.9,4.1,5,2.5,6.5c-1.6,1.6-4.6-0.8-6.5-2.5
		c-1.9-1.7-2.7-2.7-4.5-4.5C334.3,306.2,331.6,303.5,333.6,301.5z"/>
	<path class="st1" d="M356.1,324.1c2-2,4.7,0.7,6.5,2.5c1.8,1.8,4.5,4.5,2.5,6.5c-2,2-4.7-0.7-6.5-2.5
		C356.8,328.8,354.1,326.1,356.1,324.1z"/>
	<path class="st1" d="M302,279c2-2,4.7,0.7,6.5,2.5c1.8,1.8,2.7,2.7,4.5,4.5c1.8,1.8,4.5,4.5,2.5,6.5c-2,2-4.7-0.7-6.5-2.5
		c-1.8-1.8-2.7-2.7-4.5-4.5C302.7,283.7,300,281,302,279z"/>
	<path class="st1" d="M333.6,310.5c2-2,4.7,0.7,6.5,2.5c1.8,1.8,2.7,2.7,4.5,4.5c1.8,1.8,2.7,2.7,4.5,4.5c1.8,1.8,2.7,2.7,4.5,4.5
		c1.8,1.8,4.5,4.5,2.5,6.5s-4.7-0.7-6.5-2.5c-1.8-1.8-2.7-2.7-4.5-4.5c-1.8-1.8-2.7-2.7-4.5-4.5c-1.8-1.8-2.7-2.7-4.5-4.5
		C334.3,315.2,331.6,312.5,333.6,310.5z"/>
	<path class="st1" d="M293,279c2-2,4.7,0.7,6.5,2.5c1.8,1.8,4.5,4.5,2.5,6.5c-2,2-4.7-0.7-6.5-2.5C293.7,283.7,291,281,293,279z"/>
	<path class="st1" d="M333.6,319.5c2-2,4.7,0.7,6.5,2.5c1.8,1.8,2.7,2.7,4.5,4.5c1.8,1.8,4.5,4.5,2.5,6.5c-2,2-4.7-0.7-6.5-2.5
		c-1.8-1.8-2.7-2.7-4.5-4.5C334.3,324.3,331.6,321.5,333.6,319.5z"/>
	<path class="st1" d="M284,279c0,0,4.3,1.1,6.5,2.5c2.2,1.4,4.5,4.5,2.5,6.5c-2,2-5.1-0.3-6.5-2.5C285.1,283.3,283.9,279,284,279z"
		/>
	<path class="st1" d="M333.6,328.6c1.3,0.5,5.7,3.3,4.5,4.5C336.2,333.2,333.4,328.8,333.6,328.6z"/>
	<path class="st1" d="M279.5,283.5c1-1,4.5,0.9,6.5,2.5c2,1.6,4.5,4.5,2.5,6.5c-2,2-4.9-0.5-6.5-2.5S278.4,284.5,279.5,283.5z"/>
	<path class="st1" d="M311,315c0.3-0.3,4.5,0.9,6.5,2.5s4,5,2.5,6.5s-4.9-0.5-6.5-2.5C312,319.5,310.7,315.4,311,315z"/>
	<path class="st1" d="M274.9,288c0.1-0.1,4.3,1.1,6.5,2.5c2.2,1.4,4.5,4.5,2.5,6.5s-5.1-0.3-6.5-2.5C276,292.3,274.9,288,274.9,288z
		"/>
	<path class="st1" d="M311,324.1c2.9-1.1,6.3,2.8,4.5,4.5C312.8,329.5,309,326.1,311,324.1z"/>
	<path class="st1" d="M274.9,297c2-2,4.7,0.7,6.5,2.5c1.8,1.8,4.5,4.5,2.5,6.5s-4.7-0.7-6.5-2.5C275.6,301.7,272.9,299,274.9,297z"
		/>
	<path class="st1" d="M302,324.1c2-2,4.9,0.5,6.5,2.5c1.6,2,3.4,5.6,2.5,6.5s-4.5-0.9-6.5-2.5C302.5,329,300,326.1,302,324.1z"/>
	<path class="st1" d="M247.9,279c1.2-1.2,4.6,0.9,6.5,2.5c2,1.6,3.1,2.3,4.5,4.5c1.4,2.2,2.7,6.3,2.5,6.5c-0.2,0.2-4.3-1.1-6.5-2.5
		c-2.2-1.4-2.9-2.5-4.5-4.5C248.7,283.5,246.7,280.2,247.9,279z"/>
	<path class="st1" d="M270.4,301.5c0.7-0.7,4.4,1,6.5,2.5c2.1,1.5,2.7,2.7,4.5,4.5c1.8,1.8,2.7,2.7,4.5,4.5c1.8,1.8,2.7,2.7,4.5,4.5
		c1.8,1.8,2.7,2.7,4.5,4.5c1.8,1.8,2.7,2.7,4.5,4.5c1.8,1.8,4.5,4.5,2.5,6.5c-2,2-4.7-0.7-6.5-2.5c-1.8-1.8-2.7-2.7-4.5-4.5
		c-1.8-1.8-2.7-2.7-4.5-4.5c-1.8-1.8-2.7-2.7-4.5-4.5c-1.8-1.8-2.7-2.7-4.5-4.5c-1.8-1.8-3-2.4-4.5-4.5
		C271.4,305.9,269.8,302.2,270.4,301.5z"/>
	<path class="st1" d="M238.9,279c2-2,4.7,0.7,6.5,2.5c1.8,1.8,2.7,2.7,4.5,4.5c1.8,1.8,2.7,2.7,4.5,4.5c1.8,1.8,2.7,2.7,4.5,4.5
		c1.8,1.8,4.5,4.5,2.5,6.5c-2,2-4.7-0.7-6.5-2.5c-1.8-1.8-2.7-2.7-4.5-4.5c-1.8-1.8-2.7-2.7-4.5-4.5c-1.8-1.8-2.7-2.7-4.5-4.5
		C239.6,283.7,236.9,281,238.9,279z"/>
	<path class="st1" d="M270.4,310.5c0.4-0.4,4.4,1,6.5,2.5c2.1,1.5,2.7,2.7,4.5,4.5c1.8,1.8,2.7,2.7,4.5,4.5c1.8,1.8,2.7,2.7,4.5,4.5
		c1.8,1.8,4.5,4.5,2.5,6.5s-4.7-0.7-6.5-2.5c-1.8-1.8-2.7-2.7-4.5-4.5c-1.8-1.8-2.7-2.7-4.5-4.5c-1.8-1.8-3-2.4-4.5-4.5
		C271.5,314.9,270.1,310.9,270.4,310.5z"/>
	<path class="st1" d="M229.8,279c2-2,4.7,0.7,6.5,2.5c1.8,1.8,2.7,2.7,4.5,4.5c1.8,1.8,2.7,2.7,4.5,4.5c1.8,1.8,2.7,2.7,4.5,4.5
		c1.8,1.8,2.7,2.7,4.5,4.5c1.8,1.8,2.7,2.7,4.5,4.5c1.8,1.8,4.5,4.5,2.5,6.5s-4.7-0.7-6.5-2.5c-1.8-1.8-2.7-2.7-4.5-4.5
		c-1.8-1.8-2.7-2.7-4.5-4.5c-1.8-1.8-2.7-2.7-4.5-4.5c-1.8-1.8-2.7-2.7-4.5-4.5c-1.8-1.8-2.7-2.7-4.5-4.5
		C230.5,283.7,227.8,281,229.8,279z"/>
	
		<ellipse transform="matrix(0.7071 -0.7071 0.7071 0.7071 -134.4397 242.3603)" class="st1" cx="225.3" cy="283.5" rx="2.8" ry="6.4"/>
	<path class="st1" d="M247.9,306c2-2,4.7,0.7,6.5,2.5c1.8,1.8,3.1,2.4,4.5,4.5c1.5,2.2,2.7,6.3,2.5,6.5c-0.2,0.2-4.4-1.1-6.5-2.5
		c-2.2-1.5-2.7-2.7-4.5-4.5C248.6,310.7,245.9,308,247.9,306z"/>
	<path class="st1" d="M216.3,283.5c2-2,5.1,0.3,6.5,2.5c1.4,2.2,2.6,6.5,2.5,6.5c-0.1,0.1-4.3-1.1-6.5-2.5
		C216.6,288.6,214.3,285.5,216.3,283.5z"/>
	<path class="st1" d="M247.9,315c2-2,4.8,0.6,6.5,2.5s4.2,4.8,2.5,6.5c-1.7,1.7-4.6-0.8-6.5-2.5C248.5,319.8,245.9,317,247.9,315z"
		/>
	<path class="st1" d="M211.8,288c2-2,5,0.4,6.5,2.5c1.5,2.1,2.9,6.1,2.5,6.5c-0.4,0.4-4.4-1-6.5-2.5C212.2,293,209.8,290,211.8,288z
		"/>
	<path class="st1" d="M243.4,319.5c2-2,4.7,0.7,6.5,2.5c1.8,1.8,4.3,4.7,2.5,6.5c-1.8,1.8-4.7-0.7-6.5-2.5
		C244,324.3,241.4,321.5,243.4,319.5z"/>
	
		<ellipse transform="matrix(0.7071 -0.7071 0.7071 0.7071 -147.9697 236.7582)" class="st1" cx="211.8" cy="297" rx="2.8" ry="6.4"/>
	<path class="st1" d="M238.9,324.1c2.9-1.1,6.5,2.5,4.5,4.5C240.5,329.7,236.9,326.1,238.9,324.1z"/>
	<path class="st1" d="M184.7,279c2-0.2,4.5,4.5,4.5,4.5C188.1,282.8,183.4,280.3,184.7,279z"/>
	<path class="st1" d="M202.8,297c0,0,4.3,1.1,6.5,2.5c2.2,1.4,2.7,2.7,4.5,4.5c1.8,1.8,2.9,2.5,4.5,4.5c1.6,2,2.1,3.3,3.6,5.5
		c1.4,2.2,1.5,3.9,3.5,5.5c2,1.6,4.3,1.1,6.5,2.5c2.2,1.4,2.7,2.7,4.5,4.5c1.8,1.8,4.5,4.5,2.5,6.5s-4.7-0.7-6.5-2.5
		c-1.8-1.8-3.1-2.3-4.5-4.5c-1.4-2.2-0.9-4.5-2.5-6.5c-1.6-2-3.3-2.1-5.5-3.5c-2.2-1.4-3.5-1.9-5.5-3.6c-2-1.6-2.7-2.7-4.5-4.5
		c-1.8-1.8-3.1-2.3-4.5-4.5C203.9,301.3,202.8,297,202.8,297z"/>
	<path class="st1" d="M175.7,279c2-2,4.7,0.7,6.5,2.5c1.8,1.8,2.7,2.7,4.5,4.5c1.8,1.8,4.5,4.5,2.5,6.5c-2,2-4.7-0.7-6.5-2.5
		c-1.8-1.8-2.7-2.7-4.5-4.5C176.4,283.7,173.7,281,175.7,279z"/>
	<path class="st1" d="M202.8,306c1.1-1.1,4.5,0.9,6.5,2.5c2,1.6,2.7,2.7,4.5,4.5c1.8,1.8,2.7,2.7,4.5,4.5c1.8,1.8,2.7,2.7,4.5,4.5
		c1.8,1.8,2.7,2.7,4.5,4.5c1.8,1.8,4.5,4.5,2.5,6.5c-2,2-4.7-0.7-6.5-2.5c-1.8-1.8-2.7-2.7-4.5-4.5c-1.8-1.8-2.7-2.7-4.5-4.5
		c-1.8-1.8-2.7-2.7-4.5-4.5c-1.8-1.8-2.9-2.5-4.5-4.5C203.7,310.5,201.7,307.1,202.8,306z"/>
	<path class="st1" d="M148.7,260.9c2-2,4.7,0.7,6.5,2.5c1.8,1.8,4.3,4.7,2.5,6.5c-1.8,1.8-4.7-0.7-6.5-2.5
		C149.3,265.7,146.7,262.9,148.7,260.9z"/>
	<path class="st1" d="M166.7,279c2-2,4.7,0.7,6.5,2.5c1.8,1.8,2.7,2.7,4.5,4.5c1.8,1.8,2.7,2.7,4.5,4.5c1.8,1.8,2.7,2.7,4.5,4.5
		c1.8,1.8,4.5,4.5,2.5,6.5c-2,2-4.7-0.7-6.5-2.5c-1.8-1.8-2.7-2.7-4.5-4.5c-1.8-1.8-2.7-2.7-4.5-4.5c-1.8-1.8-2.7-2.7-4.5-4.5
		C167.4,283.7,164.7,281,166.7,279z"/>
	<path class="st1" d="M207.3,319.5c2-2,4.7,0.7,6.5,2.5c1.8,1.8,2.8,2.6,4.5,4.5c1.7,1.9,4,5.1,2.5,6.5c-1.5,1.5-4.6-0.8-6.5-2.5
		c-1.9-1.7-2.7-2.7-4.5-4.5C208,324.3,205.3,321.5,207.3,319.5z"/>
	<path class="st1" d="M144.2,265.4c2-2,4.7,0.7,6.5,2.5c1.8,1.8,2.7,2.7,4.5,4.5c1.8,1.8,2.6,2.8,4.4,4.6c1.8,1.8,2.8,2.6,4.6,4.4
		s3,2.4,4.5,4.5c1.5,2.1,1.4,4.1,3.2,5.9c1.8,1.8,3.8,1.6,5.9,3.2s2.7,2.7,4.5,4.5c1.8,1.8,2.7,2.7,4.5,4.5c1.8,1.8,4.5,4.5,2.5,6.5
		c-2,2-4.7-0.7-6.5-2.5c-1.8-1.8-2.7-2.7-4.5-4.5c-1.8-1.8-3-2.4-4.5-4.5c-1.5-2.1-1.4-4.1-3.2-5.9c-1.8-1.8-3.8-1.6-5.9-3.2
		c-2.1-1.5-2.7-2.7-4.5-4.5c-1.8-1.8-2.6-2.8-4.4-4.6c-1.8-1.8-2.8-2.6-4.6-4.4c-1.8-1.8-2.7-2.7-4.5-4.5
		C144.9,270.1,142.2,267.4,144.2,265.4z"/>
	<path class="st1" d="M144.2,274.4c2-2,4.7,0.7,6.5,2.5c1.8,1.8,2.7,2.7,4.5,4.5c1.8,1.8,2.9,2.5,4.5,4.5c1.6,2,3.5,5.5,2.5,6.5
		c-1,1-4.5-0.9-6.5-2.5c-2-1.6-2.7-2.7-4.5-4.5c-1.8-1.8-2.7-2.7-4.5-4.5C144.9,279.2,142.2,276.4,144.2,274.4z"/>
	<path class="st1" d="M175.7,306c1.6-1.6,4.6,0.8,6.5,2.5c1.9,1.7,2.7,2.7,4.5,4.5c1.8,1.8,4.5,4.5,2.5,6.5c-2,2-4.7-0.7-6.5-2.5
		c-1.8-1.8-2.8-2.6-4.5-4.5C176.5,310.7,174.1,307.6,175.7,306z"/>
	<path class="st1" d="M144.2,283.5c2-2,4.7,0.7,6.5,2.5c1.8,1.8,2.7,2.7,4.5,4.5c1.8,1.8,4.5,4.5,2.5,6.5s-4.7-0.7-6.5-2.5
		c-1.8-1.8-2.7-2.7-4.5-4.5C144.9,288.2,142.2,285.5,144.2,283.5z"/>
	<path class="st1" d="M175.7,315c1.6-1.6,4.6,0.8,6.5,2.5c1.9,1.7,2.7,2.7,4.5,4.5c1.8,1.8,4.5,4.5,2.5,6.5c-2,2-4.7-0.7-6.5-2.5
		c-1.8-1.8-2.8-2.6-4.5-4.5C176.5,319.7,174.1,316.7,175.7,315z"/>
	<path class="st1" d="M144.2,292.5c2-2,4.7,0.7,6.5,2.5c1.8,1.8,2.8,2.7,4.5,4.5c1.8,1.9,4.3,4.8,2.5,6.5c-1.8,1.8-4.7-0.8-6.5-2.5
		c-1.9-1.8-2.7-2.7-4.5-4.5C144.9,297.2,142.2,294.5,144.2,292.5z"/>
	<path class="st1" d="M175.7,324.1c1.6-1.6,4.6,0.8,6.5,2.5c1.9,1.7,4.5,4.5,2.5,6.5s-4.8-0.6-6.5-2.5
		C176.5,328.7,174.1,325.7,175.7,324.1z"/>
	<path class="st1" d="M121.6,279c2.4-0.6,6.5,2.5,4.5,4.5C123.3,284.4,120.2,280.3,121.6,279z"/>
	<path class="st1" d="M144.2,301.5c2-2,4.7,0.7,6.5,2.5c1.8,1.8,2.8,2.7,4.5,4.5c1.8,1.9,4.3,4.8,2.5,6.5c-1.8,1.8-4.7-0.8-6.5-2.5
		c-1.9-1.8-2.7-2.7-4.5-4.5C144.9,306.2,142.2,303.5,144.2,301.5z"/>
	<path class="st1" d="M112.6,279c2-2,4.7,0.7,6.5,2.5c1.8,1.8,4.5,4.5,2.5,6.5c-2,2-4.7-0.7-6.5-2.5
		C113.3,283.7,110.6,281,112.6,279z"/>
	<path class="st1" d="M144.2,310.5c2-2,4.7,0.7,6.5,2.5c1.8,1.8,2.8,2.7,4.5,4.5c1.8,1.9,4.3,4.8,2.5,6.5c-1.8,1.8-4.7-0.8-6.5-2.5
		c-1.9-1.8-2.7-2.7-4.5-4.5C144.9,315.2,142.2,312.5,144.2,310.5z"/>
	<path class="st1" d="M103.6,279c2-2,4.7,0.7,6.5,2.5c1.8,1.8,3.1,2.3,4.5,4.5c1.4,2.2,2.7,6.4,2.5,6.5c-0.1,0.1-4.3-1.1-6.5-2.5
		c-2.2-1.4-2.7-2.7-4.5-4.5C104.3,283.7,101.6,281,103.6,279z"/>
	<path class="st1" d="M144.2,319.5c2-2,4.7,0.7,6.5,2.5c1.8,1.8,2.8,2.7,4.5,4.5c1.8,1.9,4.3,4.8,2.5,6.5c-1.8,1.8-4.7-0.8-6.5-2.5
		c-1.9-1.8-2.7-2.7-4.5-4.5C144.9,324.3,142.2,321.5,144.2,319.5z"/>
	<path class="st1" d="M94.6,279c2-2,4.7,0.7,6.5,2.5c1.8,1.8,4.5,4.6,2.5,6.5c-2,2-4.7-0.7-6.5-2.5C95.2,283.7,92.5,281,94.6,279z"
		/>
	<path class="st1" d="M112.6,297c0.6-0.6,4.4,1,6.5,2.5c2.1,1.5,2.7,2.7,4.5,4.5c1.8,1.8,2.7,2.7,4.5,4.5c1.8,1.8,4.5,4.5,2.5,6.5
		c-2,2-4.7-0.7-6.5-2.5c-1.8-1.8-2.7-2.7-4.5-4.5c-1.8-1.8-3-2.4-4.5-4.5C113.6,301.4,112,297.6,112.6,297z"/>
	<path class="st1" d="M144.2,328.6c2.9-1.1,6.5,2.5,4.5,4.5C145.8,334.2,142.2,330.6,144.2,328.6z"/>
	<path class="st1" d="M90,283.5c2-2,4.9,0.5,6.5,2.5c1.6,2,1.6,3.8,3.4,5.6c1.8,1.8,3.6,1.8,5.6,3.4c2,1.6,2.7,2.7,4.5,4.5
		c1.8,1.8,2.7,2.7,4.5,4.5c1.8,1.8,2.7,2.7,4.5,4.5c1.8,1.8,2.7,2.7,4.5,4.5c1.8,1.8,3.1,2.3,4.5,4.5c1.4,2.2,2.7,6.3,2.5,6.5
		c-0.2,0.2-4.3-1.1-6.5-2.5c-2.2-1.4-2.7-2.7-4.5-4.5c-1.8-1.8-2.7-2.7-4.5-4.5c-1.8-1.8-2.7-2.7-4.5-4.5c-1.8-1.8-2.7-2.7-4.5-4.5
		c-1.8-1.8-2.9-2.5-4.5-4.5c-1.6-2-1.6-3.8-3.4-5.6c-1.8-1.8-3.6-1.8-5.6-3.4C90.5,288.4,88,285.5,90,283.5z"/>
	<path class="st1" d="M85.5,288c2-2,4.7,0.7,6.5,2.5c1.8,1.8,2.7,2.7,4.5,4.5c1.8,1.8,2.7,2.7,4.5,4.5c1.8,1.8,2.7,2.7,4.5,4.5
		c1.8,1.8,4.5,4.5,2.5,6.5c-2,2-4.7-0.7-6.5-2.5c-1.8-1.8-2.7-2.7-4.5-4.5c-1.8-1.8-2.7-2.7-4.5-4.5c-1.8-1.8-2.7-2.7-4.5-4.5
		C86.2,292.7,83.5,290,85.5,288z"/>
	<path class="st1" d="M117.1,319.5c2-2,5,0.4,6.5,2.5c1.5,2.1,3,6,2.5,6.5c-0.5,0.5-4.4-1-6.5-2.5
		C117.5,324.6,115.1,321.5,117.1,319.5z"/>
	<path class="st1" d="M85.5,297c2-2,4.7,0.7,6.5,2.5c1.8,1.8,2.8,2.6,4.5,4.5c1.7,1.9,4.1,4.9,2.5,6.5c-1.6,1.6-4.6-0.8-6.5-2.5
		s-2.7-2.7-4.5-4.5C86.2,301.7,83.5,299,85.5,297z"/>
	<path class="st1" d="M112.6,324.1c2.9-1.1,6.5,2.5,4.5,4.5C114.2,329.7,110.6,326.1,112.6,324.1z"/>
	
		<ellipse transform="matrix(0.7071 -0.7071 0.7071 0.7071 -200.6735 172.6578)" class="st1" cx="108.1" cy="328.6" rx="2.8" ry="6.4"/>
	<path class="st1" d="M90,319.5c2-2,4.7,0.7,6.5,2.5c1.8,1.8,2.7,2.7,4.5,4.5c1.8,1.8,4.5,4.5,2.5,6.5s-4.7-0.7-6.5-2.5
		c-1.8-1.8-2.7-2.7-4.5-4.5C90.7,324.3,88,321.5,90,319.5z"/>
	<path class="st1" d="M85.5,324.1c2-2,4.7,0.7,6.5,2.5c1.8,1.8,4.4,4.6,2.5,6.5c-1.9,1.9-4.7-0.7-6.5-2.5S83.5,326.1,85.5,324.1z"/>
</g>
</svg>
